<?xml version="1.0" encoding="UTF-8"?>
<svg id="Layer_1" xmlns="http://www.w3.org/2000/svg" version="1.1" viewBox="0 0 128 25">
  <!-- Generator: Adobe Illustrator 29.1.0, SVG Export Plug-In . SVG Version: 2.1.0 Build 142)  -->
  <defs>
    <style>
      .st0 {
        fill: #fff;
        fill-rule: evenodd;
        stroke: #000;
        stroke-miterlimit: 10;
        stroke-width: .5px;
      }
    </style>
  </defs>
  <g id="Page-1">
    <g id="logo-full-white">
      <g id="Page-11" data-name="Page-1">
        <g id="While-Full">
          <path id="Fill-17-Copy-4" class="st0" d="M22,7h0s0,0,0,0c2.4,0,4.3,1.9,4.3,4.3,0,1.3-.6,2.5-1.6,3.3-.4.4-.9.7-1.6.8-.4.1-.8.2-1.2.2h0c-.4,0-.8,0-1.2-.2-.6-.1-1.1-.4-1.6-.8-1.8-1.5-2.1-4.2-.6-6.1.8-1,2-1.6,3.3-1.6M3.7,24.4c2.3.3,4.4-1.4,4.6-3.8,0-.8,0-1.6-.4-2.3-3.2-7.1,12.8-7.3,10.1-.6h0c-1.3,2.1-.6,4.7,1.5,6,.8.5,1.6.6,2.5.6.9,0,1.7-.2,2.5-.6,2.1-1.2,2.8-3.9,1.5-5.9,0,0,0,0,0,0-2.7-6.7,13.3-6.6,10.1.6-.3.7-.5,1.5-.4,2.3.2,2.4,2.3,4.1,4.6,3.8,1-.1,1.9-.6,2.6-1.4,0,0,1.1-.9,1.1-3.2,0-1.9-1.1-2.9-1.1-2.9-.9-.9-2.1-1.3-3.3-1.2-3,0-3.4-2.4-2.6-6.8.3-.8.4-1.6.4-2.4,0-2.3-1.1-4.5-3.1-5.7-.3-.1-.5-.3-.8-.4,0,0-.1,0-.2,0,0,0-.2,0-.2,0-2.8-.9-5.8.2-7.3,2.7-1.5,1.6-2.2,2.6-3.7,2.6s-2.2-1-3.7-2.6C16.8.5,13.7-.6,11,.3c0,0-.2,0-.2,0,0,0-.1,0-.2,0-.3.1-.5.2-.8.4-2,1.2-3.2,3.3-3.1,5.7,0,.8.1,1.7.4,2.4.8,4.4.4,6.7-2.6,6.8-1.5-.2-2.5.4-3.6,1.5-1.1,1.1-1,4,0,5.3.7.9,1.7,1.6,2.9,1.7"/>
          <path id="Mendeley" class="st0" d="M64.7,19l-.7-10.9-4.9,11.2-4.4-11.1-.8,10.9h-1.4l.9-12.7h1.9l1.7,4.3c.3.7.5,1.3.8,2s.5,1.2.7,1.7c.2.6.4,1.2.7,1.8,0,0,0-.2.2-.6.1-.3.3-.8.5-1.3.2-.6.5-1.1.7-1.7.3-.6.5-1.3.8-1.9l1.9-4.4h1.8l.9,12.7h-1.5ZM69.8,14.2c0,0,0,.2,0,.2v.2c0,1.1.2,1.9.7,2.4.5.6,1.2.9,2.1.9s.5,0,.8,0c.3,0,.5-.1.8-.2.2,0,.5-.2.7-.3.2,0,.3-.2.5-.3v1.3c-.3.3-.7.5-1.2.6-.5.2-1.2.2-2,.2s-1.1-.1-1.5-.3c-.5-.2-.9-.5-1.2-.9-.4-.4-.7-.9-.8-1.4-.2-.6-.3-1.2-.3-1.9s0-1.4.3-2c.2-.6.5-1.1.8-1.4.3-.4.8-.7,1.2-.9.5-.2,1-.3,1.6-.3,1.3,0,2.2.3,2.7,1,.5.7.8,1.7.8,3.1h-5.8,0ZM74.3,13c0-.4-.1-.7-.2-.9-.1-.2-.3-.4-.5-.5-.2-.1-.5-.2-.7-.2-.3,0-.5,0-.8,0-.2,0-.5,0-.7,0-.3,0-.4.1-.5.2,0,0-.1,0-.2.1,0,0-.2.2-.2.3,0,.1-.2.3-.3.4,0,.2-.2.4-.2.6,0,0,4.3,0,4.3,0ZM85.3,15.9c0,.3,0,.6,0,.9v1c0,.4,0,.8,0,1.3h-1.5c0-.5,0-.9,0-1.2,0-.3,0-.6,0-.9v-2.9c0-.2,0-.4,0-.5,0-.3,0-.6,0-.9,0-.2,0-.4-.2-.6-.1-.2-.3-.3-.4-.4-.2,0-.4-.1-.8-.1s-.3,0-.4,0h-.4c-.1,0-.2.1-.3.1h-.2c0,.1-.2.2-.2.3-.1.1-.2.2-.4.4-.1.2-.3.3-.4.5-.1.2-.3.3-.4.5v5.8h-1.5v-6.3c0-.5,0-.9,0-1.3,0-.4,0-.7-.1-1.1h1.4l.2,1.3c.4-.4.8-.8,1.2-1.1.5-.3,1-.4,1.7-.4s.7,0,1.1.1c.3,0,.6.2.8.4.2.2.4.4.6.7.1.3.2.7.3,1.1,0,.4,0,.9,0,1.3,0,.4,0,.9,0,1.3,0,0,0,.9,0,.9ZM94.3,19c0-.2,0-.3,0-.5v-.5c-.5.5-.9.8-1.3,1-.4.2-.9.3-1.5.3-.5,0-1-.1-1.5-.3-.5-.2-.8-.5-1.2-.9-.3-.4-.6-.9-.8-1.4-.2-.6-.3-1.2-.3-1.9,0-1.5.4-2.6,1.2-3.4.8-.8,1.9-1.2,3.2-1.2s.7,0,1,0c.3,0,.6.1.9.2v-5.4h1.5v11.6c0,.4,0,.8,0,1.2,0,.4,0,.8.1,1.2,0,0-1.4,0-1.4,0ZM94,13c0-.4,0-.6,0-.9,0-.2-.2-.4-.3-.5-.2-.1-.4-.2-.6-.2-.5,0-1,0-1.4,0-.3,0-.6,0-.9.1,0,0-.2,0-.3.1-.1,0-.2.2-.3.3-.1.2-.3.4-.4.6-.1.2-.2.5-.3.9,0,.3-.1.7-.1,1.1s0,1.1.2,1.5c.2.4.3.8.6,1.1.2.3.5.5.7.6s.5.2.8.2.5,0,.7-.1c.5-.2.9-.5,1.2-.8.2-.2.3-.4.4-.6,0,0,0-3.5,0-3.5ZM99.5,14.2c0,0,0,.2,0,.2v.2c0,1.1.2,1.9.7,2.4.5.6,1.2.9,2.1.9s.5,0,.8,0c.3,0,.5-.1.8-.2s.5-.2.7-.3c.2,0,.3-.2.5-.3v1.3c-.3.3-.7.5-1.2.6-.5.2-1.2.2-2,.2s-1.1-.1-1.5-.3c-.5-.2-.9-.5-1.2-.9-.4-.4-.7-.9-.8-1.4-.2-.6-.3-1.2-.3-1.9s0-1.4.3-2c.2-.6.5-1.1.8-1.4.3-.4.8-.7,1.2-.9.5-.2,1-.3,1.6-.3,1.3,0,2.2.3,2.7,1,.5.7.8,1.7.8,3.1,0,0-5.8,0-5.8,0ZM104,13c0-.4-.1-.7-.2-.9-.1-.2-.3-.4-.5-.5-.2-.1-.5-.2-.7-.2-.3,0-.5,0-.8,0-.2,0-.5,0-.7,0-.3,0-.4.1-.5.2,0,0-.1,0-.2.1,0,0-.2.2-.2.3,0,.1-.2.3-.3.4,0,.2-.2.4-.2.6,0,0,4.3,0,4.3,0ZM107.6,19V5h1.5v14h-1.5ZM113,14.2c0,0,0,.2,0,.2v.2c0,1.1.2,1.9.7,2.4.5.6,1.2.9,2.1.9s.5,0,.8,0c.3,0,.5-.1.8-.2s.5-.2.7-.3c.2,0,.3-.2.5-.3v1.3c-.3.3-.7.5-1.2.6-.5.2-1.2.2-2,.2s-1.1-.1-1.5-.3c-.5-.2-.9-.5-1.2-.9-.4-.4-.7-.9-.8-1.4-.2-.6-.3-1.2-.3-1.9s0-1.4.3-2c.2-.6.5-1.1.8-1.4.3-.4.8-.7,1.2-.9.5-.2,1-.3,1.6-.3,1.3,0,2.2.3,2.7,1,.5.7.8,1.7.8,3.1h-5.8ZM117.5,13c0-.4-.1-.7-.2-.9-.1-.2-.3-.4-.5-.5-.2-.1-.5-.2-.7-.2-.3,0-.5,0-.8,0-.2,0-.5,0-.7,0-.3,0-.4.1-.5.2,0,0-.1,0-.2.1,0,0-.2.2-.2.3,0,.1-.2.3-.3.4,0,.2-.2.4-.2.6,0,0,4.3,0,4.3,0ZM124.2,19.4c-.3.7-.5,1.5-.8,2.2-.3.7-.6,1.5-.9,2.2h-1.6c.4-.8.8-1.6,1.1-2.4.4-.8.7-1.5.9-2.3l-3.4-8.8h1.6l2.5,6.7,2.3-6.7h1.5s-3.2,9.1-3.2,9.1Z"/>
        </g>
      </g>
    </g>
  </g>
</svg>