<?xml version="1.0" encoding="UTF-8"?>
<svg id="Layer_2" xmlns="http://www.w3.org/2000/svg" version="1.1" viewBox="0 0 202.3 68.8">
  <!-- Generator: Adobe Illustrator 29.1.0, SVG Export Plug-In . SVG Version: 2.1.0 Build 142)  -->
  <defs>
    <style>
      .st0 {
        fill: #ddd;
      }

      .st1 {
        opacity: .5;
      }

      .st1, .st2 {
        fill: #044b84;
      }
    </style>
  </defs>
  <path class="st1" d="M91.7,63.8h0c-3.5-20.9-15.6-15.8-15.6-15.8l-.3-43.9s9.2-3.2,16,18.1h0v41.6c0,0,0,0,0,0Z"/>
  <path class="st0" d="M91.7,64h0c-1-25.8-8-24.2-8-24.2L82.9,0s7.9,4.1,9,20h0l-.2,44h0Z"/>
  <g>
    <path class="st2" d="M21.9,31.9c0,3.1-.9,5.4-2.8,6.9-1.9,1.5-4.5,2.3-8,2.3h-4.1v13.2H0v-31.6h11c3.3,0,6,.8,7.9,2.3,2,1.5,2.9,3.8,2.9,6.9h0ZM14.9,32.8c0-1.6-.4-2.7-1.3-3.5s-2-1.1-3.6-1.1h-3.1v9.4h3.2c1.6,0,2.8-.4,3.5-1.3s1.1-2,1.1-3.5Z"/>
    <path class="st2" d="M45.8,54.4h-6.3v-2.5l-2.6,1.5c-.7.4-1.5.7-2.3,1-.8.2-1.7.3-2.6.3-2.2,0-3.9-.7-5.1-2-1.2-1.3-1.9-3.1-1.9-5.4v-15h6.3v13.6c0,.8.3,1.5.9,2.1.6.6,1.5.9,2.7.9s2.1-.2,2.8-.7c.8-.5,1.4-.9,1.8-1.3v-14.6h6.3v22.1h0Z"/>
    <path class="st2" d="M72.8,42.8c0,3.4-1,6.2-3.1,8.4s-4.7,3.4-7.8,3.4-2.3-.2-3.4-.5c-1.2-.3-2-.7-2.6-1.1l-3.5,1.6-1.5-.8v-31.1h6.2v10.6l2.4-1.2c.5-.2,1-.4,1.6-.6.6-.2,1.2-.3,1.9-.3,3.1,0,5.5,1.1,7.3,3.3,1.8,2.2,2.6,5,2.6,8.3h0ZM66.4,43.2c0-1.8-.5-3.4-1.5-4.8-1-1.3-2.3-2-3.8-2s-1.8.2-2.6.5c-.8.3-1.3.7-1.5,1.2v10.5c.3.4.9.7,1.6.9s1.5.4,2.4.4c2,0,3.3-.5,4.2-1.6.8-1.1,1.2-2.8,1.2-5.1h0Z"/>
  </g>
  <g>
    <g>
      <path class="st2" d="M155.4,44.2h-16.4c.3,1.8,1.1,3.1,2.1,3.9,1.1.8,2.4,1.2,3.9,1.2s2.6-.2,4.1-.5c1.5-.4,2.7-.8,3.5-1.4v5.6c-.8.6-2,1-3.6,1.4s-2.9.5-3.9.5c-3.9,0-7-1.1-9.1-3.2-2.2-2.1-3.3-5-3.3-8.6s1.1-6.5,3.4-8.7c2.2-2.2,5-3.3,8.4-3.3s6,1.2,8,3.5c2,2.4,3,5.6,3,9.7h0ZM149.6,41.2c-.3-1.7-.9-2.9-1.9-3.7s-2.1-1.3-3.5-1.3-2.9.5-3.7,1.4c-.8.9-1.3,2.1-1.5,3.6h10.6Z"/>
      <path class="st2" d="M179.5,54.4h-4.8l-1.3-2-3.3,1.8c-.3.2-.7.3-1.2.3-.5,0-1,.1-1.4.1-3.2,0-5.7-1.1-7.4-3.3s-2.5-4.9-2.6-8.2c0-3.6,1-6.4,3-8.5s4.7-3.2,8.1-3.2,1.8,0,2.5.2,1.4.4,2.1.8v-9.7h6.2v31.6ZM173.3,47.5v-9.8c-.3-.4-.9-.8-1.7-1.1-.8-.3-1.6-.5-2.6-.5-1.7,0-3,.5-3.8,1.5s-1.3,2.6-1.3,4.8.4,3.9,1.3,5,2.1,1.7,3.6,1.7,1.9-.2,2.6-.5c.7-.3,1.4-.7,1.8-1.2h0Z"/>
    </g>
    <g>
      <path class="st2" d="M155.4,44.2h-16.4c.3,1.8,1.1,3.1,2.1,3.9,1.1.8,2.4,1.2,3.9,1.2s2.6-.2,4.1-.5c1.5-.4,2.7-.8,3.5-1.4v5.6c-.8.6-2,1-3.6,1.4s-2.9.5-3.9.5c-3.9,0-7-1.1-9.1-3.2-2.2-2.1-3.3-5-3.3-8.6s1.1-6.5,3.4-8.7c2.2-2.2,5-3.3,8.4-3.3s6,1.2,8,3.5c2,2.4,3,5.6,3,9.7h0ZM149.6,41.2c-.3-1.7-.9-2.9-1.9-3.7s-2.1-1.3-3.5-1.3-2.9.5-3.7,1.4c-.8.9-1.3,2.1-1.5,3.6h10.6Z"/>
      <path class="st2" d="M179.5,54.4h-4.8l-1.3-2-3.3,1.8c-.3.2-.7.3-1.2.3-.5,0-1,.1-1.4.1-3.2,0-5.7-1.1-7.4-3.3s-2.5-4.9-2.6-8.2c0-3.6,1-6.4,3-8.5s4.7-3.2,8.1-3.2,1.8,0,2.5.2,1.4.4,2.1.8v-9.7h6.2v31.6ZM173.3,47.5v-9.8c-.3-.4-.9-.8-1.7-1.1-.8-.3-1.6-.5-2.6-.5-1.7,0-3,.5-3.8,1.5s-1.3,2.6-1.3,4.8.4,3.9,1.3,5,2.1,1.7,3.6,1.7,1.9-.2,2.6-.5c.7-.3,1.4-.7,1.8-1.2h0Z"/>
    </g>
  </g>
  <path class="st2" d="M91.7,23.8v40c6-25,38,5,38,5V25.8s-32-27-38-2ZM120,51.4l-3-15-5.5,12.9h-2.8l-4.9-12.3-3,14.5h-5.8l6-26.9h2.3l7.1,15.9,7.1-15.9h2.5l6,26.9h-6.1,0Z"/>
  <path class="st2" d="M202.3,22.1c0,4.5-3.5,8-8.1,8s-8.1-3.5-8.1-8,3.6-7.9,8.1-7.9,8.1,3.5,8.1,7.9ZM188.1,22.1c0,3.5,2.6,6.3,6.1,6.3s6-2.8,6-6.2-2.5-6.3-6.1-6.3-6.1,2.8-6.1,6.3h0ZM193,26.2h-1.8v-7.9c.7-.1,1.7-.2,3-.2s2.2.2,2.7.6c.4.3.8,1,.8,1.7s-.7,1.5-1.6,1.8h0c.8.4,1.2,1,1.4,2,.2,1.2.4,1.7.6,2h-2c-.2-.3-.4-1-.6-1.9-.1-.9-.6-1.2-1.6-1.2h-.9v3.2h0ZM193,21.8h.9c1,0,1.8-.3,1.8-1.1s-.5-1.2-1.7-1.2-.8,0-1,.1v2.3h0Z"/>
</svg>